<?xml version="1.0" encoding="UTF-8"?>
<svg id="Layer_1" data-name="Layer 1" xmlns="http://www.w3.org/2000/svg" viewBox="0 0 130.24 116.81">
  <defs>
    <style>
      .cls-1 {
        fill: none;
        stroke: #161955;
        stroke-miterlimit: 10;
        stroke-width: 10px;
      }
    </style>
  </defs>
  <path class="cls-1" d="M26.9,116.42c1.53-19.74,3.06-39.49,4.6-59.23-7.04,1.82-14.07,3.63-21.11,5.45-1.65-10.38-3.29-20.77-4.94-31.15,11.86-7.43,23.72-14.87,35.57-22.3,1.21,12.03,10.77,21.32,21.96,22.13,12.59,.91,24.44-9.13,25.53-22.81,12.09,7.38,24.17,14.75,36.26,22.13-1.7,10.61-3.4,21.22-5.11,31.83-7.04-1.48-14.07-2.95-21.11-4.43,1.59,17.87,3.18,35.74,4.77,53.62H41.37"/>
</svg>